<svg xmlns="http://www.w3.org/2000/svg" version="1.1" xmlns:xlink="http://www.w3.org/1999/xlink" width="200" height="200"><svg width="200" height="200" viewBox="0 0 200 200" fill="none" xmlns="http://www.w3.org/2000/svg">
<rect width="200" height="200" fill="#D9D9D9"></rect>
<path d="M107.242 33.7089L124.16 69.5546C125.336 72.0476 127.611 73.7751 130.243 74.1742L168.074 79.9228C174.702 80.9305 177.345 89.4437 172.552 94.3284L145.177 122.23C143.275 124.17 142.405 126.968 142.855 129.706L149.317 169.105C150.449 176.005 143.522 181.266 137.596 178.011L103.76 159.411C101.406 158.118 98.5935 158.118 96.2405 159.411L62.4044 178.011C56.4781 181.27 49.5508 176.005 50.6835 169.105L57.1447 129.706C57.5952 126.968 56.7253 124.17 54.8231 122.23L27.448 94.3284C22.6545 89.4404 25.2985 80.9272 31.9255 79.9228L69.7575 74.1742C72.3889 73.7751 74.6636 72.0476 75.8401 69.5546L92.7581 33.7089C95.718 27.4304 104.279 27.4304 107.242 33.7089Z" fill="#1D73BA"></path>
</svg><style>@media (prefers-color-scheme: light) { :root { filter: none; } }
@media (prefers-color-scheme: dark) { :root { filter: none; } }
</style></svg>