<svg xmlns="http://www.w3.org/2000/svg" version="1.1" xmlns:xlink="http://www.w3.org/1999/xlink" width="100" height="100"><svg width="100" height="100" viewBox="0 0 100 100" fill="none" xmlns="http://www.w3.org/2000/svg">
<g clip-path="url(#clip0_244_2)">
<path d="M54.8289 5.18565L66.1076 28.0392C66.8919 29.6287 68.4084 30.7301 70.1627 30.9846L95.3838 34.6496C99.8018 35.292 101.564 40.7196 98.3688 43.834L80.1189 61.6229C78.8506 62.8598 78.2707 64.6433 78.5711 66.3892L82.8785 91.5081C83.6337 95.9074 79.0154 99.2616 75.0646 97.1861L52.5073 85.3275C50.9386 84.5035 49.0634 84.5035 47.4947 85.3275L24.9374 97.1861C20.9866 99.2637 16.3683 95.9074 17.1234 91.5081L21.4309 66.3892C21.7313 64.6433 21.1514 62.8598 19.8831 61.6229L1.63324 43.834C-1.56242 40.7176 0.2002 35.2899 4.61822 34.6496L29.8393 30.9846C31.5936 30.7301 33.1101 29.6287 33.8944 28.0392L45.1731 5.18565C47.1464 1.18273 52.8535 1.18273 54.8289 5.18565Z" fill="#2752EB"></path>
</g>
<defs>
<clipPath id="SvgjsClipPath1001">
<rect width="100" height="100" fill="white"></rect>
</clipPath>
</defs>
</svg><style>@media (prefers-color-scheme: light) { :root { filter: none; } }
@media (prefers-color-scheme: dark) { :root { filter: none; } }
</style></svg>