<svg width="381" height="90" viewBox="0 0 381 90" fill="none" xmlns="http://www.w3.org/2000/svg">
<path fill-rule="evenodd" clip-rule="evenodd" d="M141.564 0V78.4158H157.596V0H141.564ZM106.019 89.5099C108.221 89.8366 110.849 90 113.903 90C121.332 90 126.765 88.3663 130.2 85.099C133.665 81.8614 135.398 76.4554 135.398 68.8812V11.5842H119.321V19.1139C118.763 16.5891 117.662 14.5842 116.017 13.099C114.402 11.6139 112.141 10.8713 109.234 10.8713C105.799 10.8713 103.127 11.6436 101.218 13.1881C99.3096 14.7327 97.9735 16.8861 97.2101 19.6485C96.4466 22.3812 96.0649 25.5446 96.0649 29.1386V53.1535C96.0649 56.3317 96.5053 59.2129 97.3862 61.797C98.2672 64.3812 99.6766 66.4307 101.615 67.9455C103.553 69.4604 106.093 70.2178 109.234 70.2178C114.696 70.2178 118.058 67.9307 119.321 63.3564V69.9059C119.321 72.5198 118.704 74.6436 117.471 76.2772C116.238 77.9109 114.358 78.7277 111.833 78.7277C107.987 78.7277 104.14 77.5693 100.293 75.2525L94.9637 84.4753C96.6962 85.9307 98.4287 87.0594 100.161 87.8614C101.894 88.6634 103.846 89.2129 106.019 89.5099ZM119.321 51.4158C119.321 55.9307 118.088 58.1881 115.621 58.1881C114.006 58.1881 112.993 57.4604 112.582 56.005C112.2 54.5495 112.009 53.0198 112.009 51.4158V28.6931C112.009 27.2079 112.2 25.901 112.582 24.7723C112.964 23.6139 113.918 23.0347 115.445 23.0347C116.649 23.0347 117.588 23.6733 118.264 24.9505C118.969 26.2277 119.321 27.4752 119.321 28.6931V51.4158ZM175.963 79.1287C172.293 79.1287 169.489 78.2673 167.551 76.5446C165.642 74.8218 164.335 72.4604 163.631 69.4604C162.926 66.4604 162.574 63.0594 162.574 59.2574C162.574 55.1881 162.97 51.8614 163.763 49.2772C164.556 46.6634 165.906 44.5248 167.815 42.8614C169.753 41.198 172.41 39.7871 175.787 38.6287L185.565 35.2426V28.3812C185.565 24.7871 184.405 22.9901 182.086 22.9901C179.972 22.9901 178.914 24.4455 178.914 27.3564V31.3663H163.587C163.557 31.1287 163.543 30.8317 163.543 30.4753V29.1832C163.543 22.5297 165.084 17.8218 168.167 15.0594C171.28 12.2673 176.198 10.8713 182.923 10.8713C186.446 10.8713 189.603 11.5099 192.392 12.7871C195.182 14.0347 197.384 15.8911 198.999 18.3564C200.644 20.8218 201.466 23.8663 201.466 27.4901V78.4158H185.786V70.4852C185.022 73.2772 183.759 75.4158 181.998 76.901C180.236 78.3861 178.224 79.1287 175.963 79.1287ZM182.174 66.7426C183.466 66.7426 184.347 66.1931 184.817 65.0941C185.286 63.9951 185.521 62.8069 185.521 61.5297V42.9059C183.348 43.797 181.66 44.9257 180.456 46.2921C179.252 47.6287 178.65 49.604 178.65 52.2178V60.8168C178.65 64.7673 179.825 66.7426 182.174 66.7426ZM205.342 11.5842L215.957 78.4158H234.192L244.983 11.5842H229.214L224.942 56.2277L221.154 11.5842H205.342ZM263.739 79C260.612 79 258.132 78.4366 256.297 77.3097C254.463 76.1828 253.095 74.6259 252.193 72.6391C251.291 70.6522 250.69 68.3243 250.389 65.6554C250.119 62.9865 249.983 60.1248 249.983 57.0704V28.0681C249.983 22.9379 250.9 18.7862 252.735 15.6132C254.599 12.4401 257.741 10.8536 262.16 10.8536C265.438 10.8536 267.948 11.5505 269.692 12.9443C271.466 14.3084 272.834 16.2211 273.796 18.6824V0H290.213V78.2883H273.796V71.2157C272.894 73.6177 271.692 75.5156 270.188 76.9093C268.715 78.3031 266.565 79 263.739 79ZM269.918 66.545C271.451 66.545 272.473 65.9371 272.985 64.7213C273.526 63.5054 273.796 61.3258 273.796 58.1824V30.1143C273.796 28.5426 273.556 27.0006 273.075 25.4882C272.624 23.9461 271.602 23.1751 270.008 23.1751C268.264 23.1751 267.167 23.9017 266.716 25.3547C266.265 26.8078 266.039 28.3943 266.039 30.1143V58.1824C266.039 63.7575 267.332 66.545 269.918 66.545ZM308.749 79C304.991 79 302.119 78.14 300.135 76.42C298.181 74.7001 296.843 72.3425 296.121 69.3474C295.399 66.3523 295.039 62.9568 295.039 59.161C295.039 55.0983 295.445 51.777 296.256 49.1971C297.068 46.5875 298.451 44.4523 300.406 42.7917C302.39 41.131 305.111 39.7224 308.569 38.5659L318.581 35.1852V28.335C318.581 24.7468 317.393 22.9527 315.018 22.9527C312.853 22.9527 311.771 24.4058 311.771 27.3119V31.3153H296.076C296.046 31.0781 296.031 30.7815 296.031 30.4257V29.1357C296.031 22.4931 297.609 17.7928 300.766 15.0349C303.953 12.2474 308.99 10.8536 315.875 10.8536C319.483 10.8536 322.715 11.4912 325.572 12.7663C328.428 14.0118 330.683 15.8652 332.337 18.3266C334.02 20.7879 334.862 23.8275 334.862 27.4454V78.2883H318.807V70.3705C318.025 73.158 316.732 75.2932 314.928 76.7759C313.124 78.2586 311.064 79 308.749 79ZM315.108 66.634C316.431 66.634 317.333 66.0854 317.814 64.9882C318.295 63.891 318.536 62.7048 318.536 61.4296V42.8361C316.311 43.7258 314.582 44.8527 313.349 46.2168C312.117 47.5512 311.5 49.5233 311.5 52.1329V60.7179C311.5 64.662 312.703 66.634 315.108 66.634ZM340.545 58.3159C340.545 72.1053 347.28 79 360.75 79C374.25 79 381 72.1053 381 58.3159V31.5377C381 25.2509 379.211 20.2393 375.633 16.5028C372.055 12.7367 367.094 10.8536 360.75 10.8536C354.436 10.8536 349.49 12.7367 345.912 16.5028C342.334 20.2393 340.545 25.2509 340.545 31.5377V58.3159ZM363.636 65.2995C363.065 66.2485 362.103 66.723 360.75 66.723C359.397 66.723 358.42 66.2485 357.818 65.2995C357.247 64.3209 356.961 63.0903 356.961 61.6075V29.0023C356.961 25.1175 358.224 23.1751 360.75 23.1751C363.275 23.1751 364.538 25.1175 364.538 29.0023V61.6075C364.538 63.0903 364.238 64.3209 363.636 65.2995Z" fill="black"/>
<g clip-path="url(#clip0_54_15)">
<path d="M49.3886 4.66708L59.5482 25.2353C60.2547 26.6658 61.6207 27.6571 63.2009 27.8861L85.9195 31.1846C89.8991 31.7628 91.4869 36.6477 88.6083 39.4506L72.1692 55.4606C71.0268 56.5738 70.5044 58.179 70.775 59.7503L74.6551 82.3573C75.3353 86.3166 71.1752 89.3354 67.6165 87.4675L47.2973 76.7947C45.8843 76.0532 44.1951 76.0532 42.7822 76.7947L22.463 87.4675C18.9042 89.3373 14.7442 86.3166 15.4244 82.3573L19.3045 59.7503C19.575 58.179 19.0527 56.5738 17.9103 55.4606L1.47119 39.4506C-1.40739 36.6458 0.180334 31.7609 4.15999 31.1846L26.8786 27.8861C28.4588 27.6571 29.8248 26.6658 30.5313 25.2353L40.6909 4.66708C42.4684 1.06445 47.6092 1.06445 49.3886 4.66708Z" fill="#C71515"/>
</g>
<defs>
<clipPath id="clip0_54_15">
<rect width="90.0777" height="90" fill="white"/>
</clipPath>
</defs>
</svg>
