<svg width="336" height="90" viewBox="0 0 336 90" fill="none" xmlns="http://www.w3.org/2000/svg">
<path fill-rule="evenodd" clip-rule="evenodd" d="M46.5942 78.4158V0H62.6248V78.4158H46.5942ZM18.9372 90C15.8837 90 13.256 89.8366 11.054 89.5099C8.88139 89.2129 6.92895 88.6634 5.19671 87.8614C3.46447 87.0594 1.73224 85.9307 0 84.4753L5.32883 75.2525C9.17498 77.5693 13.0211 78.7277 16.8673 78.7277C19.3923 78.7277 21.2713 77.9109 22.5044 76.2772C23.7375 74.6436 24.3541 72.5198 24.3541 69.9059V63.3564C23.0916 67.9307 19.7299 70.2178 14.2689 70.2178C11.1274 70.2178 8.58779 69.4604 6.65003 67.9455C4.71227 66.4307 3.30299 64.3812 2.4222 61.797C1.5414 59.2129 1.101 56.3317 1.101 53.1535V29.1386C1.101 25.5446 1.48268 22.3812 2.24604 19.6485C3.0094 16.8861 4.34527 14.7327 6.25367 13.1881C8.16207 11.6436 10.8338 10.8713 14.2689 10.8713C17.1756 10.8713 19.4363 11.6139 21.0511 13.099C22.6952 14.5842 23.7962 16.5891 24.3541 19.1139V11.5842H40.4287V68.8812C40.4287 76.4554 38.6964 81.8614 35.2319 85.099C31.7968 88.3663 26.3652 90 18.9372 90ZM20.6547 58.1881C23.121 58.1881 24.3541 55.9307 24.3541 51.4158V28.6931C24.3541 27.4753 24.0018 26.2277 23.2971 24.9505C22.6218 23.6733 21.6823 23.0347 20.4786 23.0347C18.9519 23.0347 17.9977 23.6139 17.616 24.7723C17.2343 25.901 17.0435 27.2079 17.0435 28.6931V51.4158C17.0435 53.0198 17.2343 54.5495 17.616 56.005C18.027 57.4604 19.0399 58.1881 20.6547 58.1881ZM72.5778 76.5446C74.5156 78.2673 77.3194 79.1287 80.9894 79.1287C83.2502 79.1287 85.2613 78.3861 87.0229 76.901C88.7845 75.4158 90.047 73.2772 90.8103 70.4852V78.4158H106.489V27.4901C106.489 23.8663 105.666 20.8218 104.022 18.3564C102.408 15.8911 100.206 14.0347 97.4163 12.7871C94.6271 11.5099 91.4709 10.8713 87.9477 10.8713C81.2243 10.8713 76.3065 12.2673 73.1944 15.0594C70.1116 17.8218 68.5702 22.5297 68.5702 29.1832V30.4753C68.5702 30.8317 68.5849 31.1287 68.6142 31.3663H83.9401V27.3564C83.9401 24.4455 84.9971 22.9901 87.111 22.9901C89.4304 22.9901 90.5901 24.7871 90.5901 28.3812V35.2426L80.8133 38.6287C77.4369 39.7871 74.7798 41.198 72.842 42.8614C70.9336 44.5247 69.5831 46.6634 68.7904 49.2772C67.9977 51.8614 67.6013 55.1881 67.6013 59.2574C67.6013 63.0594 67.9536 66.4604 68.6582 69.4604C69.3629 72.4604 70.6694 74.8218 72.5778 76.5446ZM89.8415 65.0941C89.3717 66.1931 88.4909 66.7426 87.1991 66.7426C84.8503 66.7426 83.6759 64.7673 83.6759 60.8168V52.2178C83.6759 49.604 84.2777 47.6287 85.4815 46.2921C86.6853 44.9258 88.3735 43.797 90.5461 42.9059V61.5297C90.5461 62.8069 90.3112 63.9951 89.8415 65.0941ZM120.978 78.4158L110.364 11.5842H126.174L129.962 56.2277L134.234 11.5842H150L147.042 29.9082C152.78 19.2468 164.044 12 177 12C188.627 12 198.89 17.8358 205.021 26.738C205.168 22.2156 206.078 18.5073 207.751 15.6132C209.615 12.4401 212.756 10.8536 217.176 10.8536C220.452 10.8536 222.963 11.5505 224.706 12.9443C226.48 14.3084 227.848 16.2211 228.81 18.6824V0H245.224V78.2883H228.81V71.2157C227.908 73.6177 226.706 75.5156 225.202 76.9093C223.729 78.3031 221.58 79 218.754 79C215.627 79 213.147 78.4366 211.313 77.3097C209.479 76.1828 208.112 74.6259 207.21 72.6391C206.308 70.6522 205.706 68.3243 205.406 65.6554C205.378 65.3766 205.351 65.0957 205.325 64.8126C199.233 73.9673 188.821 80 177 80C160.215 80 146.271 67.8368 143.5 51.8435L139.21 78.4158H120.978ZM227.998 64.7213C227.487 65.9371 226.465 66.545 224.932 66.545C222.346 66.545 221.054 63.7575 221.054 58.1824V30.1143C221.054 28.3943 221.279 26.8078 221.73 25.3547C222.181 23.9017 223.278 23.1751 225.022 23.1751C226.615 23.1751 227.638 23.9461 228.088 25.4882C228.569 27.0006 228.81 28.5426 228.81 30.1143V58.1824C228.81 61.3258 228.539 63.5054 227.998 64.7213ZM255.145 76.42C257.129 78.14 260 79 263.758 79C266.073 79 268.133 78.2586 269.936 76.7759C271.74 75.2932 273.033 73.158 273.814 70.3705V78.2883H289.868V27.4454C289.868 23.8275 289.026 20.7879 287.343 18.3266C285.689 15.8652 283.435 14.0118 280.579 12.7663C277.723 11.4912 274.491 10.8536 270.883 10.8536C263.999 10.8536 258.963 12.2474 255.777 15.0349C252.62 17.7928 251.042 22.4931 251.042 29.1357V30.4257C251.042 30.7815 251.057 31.0781 251.087 31.3153H266.78V27.3119C266.78 24.4058 267.862 22.9527 270.027 22.9527C272.401 22.9527 273.589 24.7468 273.589 28.335V35.1852L263.578 38.5659C260.121 39.7224 257.4 41.131 255.416 42.7917C253.462 44.4523 252.079 46.5875 251.267 49.1971C250.455 51.777 250.05 55.0983 250.05 59.161C250.05 62.9568 250.41 66.3523 251.132 69.3474C251.853 72.3425 253.191 74.7001 255.145 76.42ZM272.822 64.9882C272.341 66.0854 271.439 66.634 270.117 66.634C267.712 66.634 266.509 64.662 266.509 60.7179V52.1329C266.509 49.5233 267.125 47.5512 268.358 46.2168C269.591 44.8527 271.319 43.7258 273.544 42.8362V61.4296C273.544 62.7048 273.303 63.8909 272.822 64.9882ZM315.753 79C302.284 79 295.55 72.1053 295.55 58.3159V31.5377C295.55 25.2509 297.339 20.2393 300.916 16.5028C304.494 12.7367 309.439 10.8536 315.753 10.8536C322.096 10.8536 327.056 12.7367 330.634 16.5028C334.211 20.2393 336 25.2509 336 31.5377V58.3159C336 72.1053 329.251 79 315.753 79ZM315.753 66.723C317.105 66.723 318.067 66.2485 318.639 65.2995C319.24 64.3209 319.54 63.0903 319.54 61.6075V29.0023C319.54 25.1175 318.278 23.1751 315.753 23.1751C313.227 23.1751 311.965 25.1175 311.965 29.0023V61.6075C311.965 63.0903 312.25 64.3209 312.821 65.2995C313.423 66.2485 314.4 66.723 315.753 66.723Z" fill="black"/>
<path fill-rule="evenodd" clip-rule="evenodd" d="M177 71C190.807 71 202 59.8071 202 46C202 32.1929 190.807 21 177 21C163.193 21 152 32.1929 152 46C152 59.8071 163.193 71 177 71ZM183.765 34.7765L179.028 25.178C178.198 23.4967 175.802 23.4967 174.973 25.178L170.236 34.7765C169.906 35.4441 169.269 35.9066 168.533 36.0135L157.94 37.5528C156.084 37.8218 155.344 40.1014 156.686 41.4103L164.351 48.8816C164.884 49.4011 165.127 50.1502 165.001 50.8835L163.192 61.4334C162.875 63.2811 164.814 64.6907 166.474 63.8181L175.948 58.8375C176.607 58.4915 177.394 58.4915 178.053 58.8375L187.527 63.8181C189.186 64.6899 191.126 63.2811 190.809 61.4334L189 50.8835C188.874 50.1502 189.117 49.4011 189.65 48.8816L197.315 41.4103C198.657 40.1023 197.917 37.8227 196.061 37.5528L185.468 36.0135C184.732 35.9066 184.095 35.4441 183.765 34.7765Z" fill="#C71515"/>
</svg>
