 <svg width="336" height="67" viewBox="0 0 336 67" fill="none" xmlns="http://www.w3.org/2000/svg">
<g clip-path="url(#clip0_226_20)">
<path d="M36.2963 3.43196L43.7626 18.5569C44.2818 19.6088 45.2857 20.3377 46.447 20.5061L63.1431 22.9317C66.0678 23.3569 67.2346 26.949 65.1191 29.0101L53.0379 40.7831C52.1983 41.6018 51.8144 42.7821 52.0133 43.9376L54.8648 60.5617C55.3647 63.4732 52.3074 65.6931 49.6921 64.3195L34.7593 56.4713C33.7209 55.926 32.4795 55.926 31.4411 56.4713L16.5084 64.3195C13.893 65.6945 10.8358 63.4732 11.3357 60.5617L14.1872 43.9376C14.386 42.7821 14.0021 41.6018 13.1626 40.7831L1.08135 29.0101C-1.03413 26.9476 0.132698 23.3555 3.05738 22.9317L19.7535 20.5061C20.9148 20.3377 21.9187 19.6088 22.4379 18.5569L29.9042 3.43196C31.2105 0.782752 34.9886 0.782752 36.2963 3.43196Z" fill="#2752EB"/>
</g>
<path d="M335.543 36.0848C335.543 41.6778 333.679 45.8086 329.95 48.4772C326.258 51.1457 321.323 52.48 315.145 52.48C308.967 52.48 304.014 51.1457 300.285 48.4772C296.593 45.8086 294.747 41.6413 294.747 35.9752V29.5048C294.747 25.7762 295.624 22.6872 297.379 20.238C299.17 17.7522 301.601 15.9244 304.672 14.7547C307.743 13.5849 311.234 13 315.145 13C319.056 13 322.529 13.5849 325.563 14.7547C328.634 15.9244 331.065 17.7339 332.856 20.1832C334.647 22.6324 335.543 25.7031 335.543 29.3952V36.0848ZM309.552 37.1267C309.552 38.6254 310.046 39.7769 311.033 40.5812C312.056 41.3854 313.427 41.7875 315.145 41.7875C316.863 41.7875 318.216 41.3854 319.203 40.5812C320.226 39.7404 320.738 38.5706 320.738 37.0718V28.4082C320.738 26.9094 320.226 25.7579 319.203 24.9537C318.216 24.1129 316.863 23.6925 315.145 23.6925C313.427 23.6925 312.056 24.0946 311.033 24.8988C310.046 25.7031 309.552 26.8546 309.552 28.3533V37.1267Z" fill="black"/>
<path d="M270.532 50.0674C270.057 51.3103 269.234 51.9317 268.064 51.9317H257.701C257.372 51.9317 257.08 51.822 256.824 51.6027C256.604 51.3468 256.495 51.0544 256.495 50.7254L256.549 50.3964L268.503 15.3579C268.649 14.8827 268.924 14.4623 269.326 14.0967C269.728 13.7312 270.276 13.5484 270.971 13.5484H286.214C286.909 13.5484 287.457 13.7312 287.859 14.0967C288.261 14.4623 288.536 14.8827 288.682 15.3579L300.635 50.3964L300.69 50.7254C300.69 51.0544 300.562 51.3468 300.306 51.6027C300.087 51.822 299.813 51.9317 299.484 51.9317H289.12C287.951 51.9317 287.128 51.3103 286.653 50.0674L285.282 46.229H271.903L270.532 50.0674ZM278.592 24.1312L274.699 35.5365H282.486L278.592 24.1312Z" fill="black"/>
<path d="M241.546 13.5484C247.724 13.5484 252.659 14.8827 256.351 17.5512C260.08 20.2198 261.944 24.3505 261.944 29.9435V35.5365C261.944 41.2392 260.098 45.4065 256.406 48.0385C252.75 50.634 247.797 51.9317 241.546 51.9317H224.054C223.652 51.9317 223.305 51.7855 223.012 51.493C222.72 51.2006 222.574 50.8533 222.574 50.4512V15.0289C222.574 14.6268 222.72 14.2795 223.012 13.9871C223.305 13.6946 223.652 13.5484 224.054 13.5484H241.546ZM241.82 41.2392C243.538 41.2392 244.891 40.8371 245.878 40.0329C246.901 39.1921 247.413 38.0223 247.413 36.5235V28.9565C247.413 27.4578 246.901 26.3063 245.878 25.502C244.891 24.6613 243.538 24.2409 241.82 24.2409H236.83V41.2392H241.82Z" fill="black"/>
<path d="M225.337 13.5484C225.666 13.5484 225.94 13.6763 226.159 13.9322C226.415 14.1516 226.543 14.4257 226.543 14.7547L226.488 15.1386L213.877 50.1222C213.694 50.634 213.401 51.0727 212.999 51.4382C212.597 51.7672 212.067 51.9317 211.409 51.9317H198.633C197.975 51.9317 197.445 51.7672 197.043 51.4382C196.641 51.0727 196.366 50.6888 196.22 50.2867L183.499 15.1386L183.444 14.7547C183.444 14.4257 183.554 14.1516 183.773 13.9322C184.029 13.6763 184.321 13.5484 184.65 13.5484H196.22C196.878 13.5484 197.408 13.7494 197.81 14.1516C198.249 14.5171 198.542 14.9192 198.688 15.3579L204.994 36.359L211.299 15.3579C211.446 14.8827 211.72 14.4623 212.122 14.0967C212.524 13.7312 213.072 13.5484 213.767 13.5484H225.337Z" fill="black"/>
<path d="M170.662 50.0674C170.187 51.3103 169.364 51.9317 168.194 51.9317H157.831C157.502 51.9317 157.209 51.822 156.954 51.6027C156.734 51.3468 156.625 51.0544 156.625 50.7254L156.679 50.3964L168.633 15.3579C168.779 14.8827 169.053 14.4623 169.456 14.0967C169.858 13.7312 170.406 13.5484 171.101 13.5484H186.344C187.039 13.5484 187.587 13.7312 187.989 14.0967C188.391 14.4623 188.665 14.8827 188.812 15.3579L200.765 50.3964L200.82 50.7254C200.82 51.0544 200.692 51.3468 200.436 51.6027C200.217 51.822 199.943 51.9317 199.614 51.9317H189.25C188.081 51.9317 187.258 51.3103 186.783 50.0674L185.412 46.229H172.033L170.662 50.0674ZM178.722 24.1312L174.829 35.5365H182.616L178.722 24.1312Z" fill="black"/>
<path d="M159.717 40.6909C160.119 40.6909 160.466 40.8371 160.758 41.1295C161.051 41.422 161.197 41.7693 161.197 42.1714V50.4512C161.197 50.8533 161.051 51.2006 160.758 51.493C160.466 51.7855 160.119 51.9317 159.717 51.9317H127.694C127.292 51.9317 126.944 51.7855 126.652 51.493C126.36 51.2006 126.213 50.8533 126.213 50.4512V15.0289C126.213 14.6268 126.36 14.2795 126.652 13.9871C126.944 13.6946 127.292 13.5484 127.694 13.5484H139.538C139.94 13.5484 140.287 13.6946 140.58 13.9871C140.872 14.2795 141.018 14.6268 141.018 15.0289V40.6909H159.717Z" fill="black"/>
<path d="M124.864 28.792C125.266 28.792 125.613 28.9382 125.906 29.2307C126.198 29.5231 126.344 29.8704 126.344 30.2725V36.0848C126.344 41.6413 124.443 45.772 120.642 48.4772C116.876 51.1457 111.887 52.48 105.672 52.48C99.4577 52.48 94.4496 51.1457 90.6478 48.4772C86.8826 45.772 85 41.6047 85 35.9752V29.5048C85 25.7762 85.9139 22.6872 87.7417 20.238C89.5694 17.7522 92.0369 15.9244 95.1442 14.7547C98.2514 13.5849 101.761 13 105.672 13C110.351 13 114.208 13.7677 117.242 15.303C120.276 16.8383 122.469 18.5747 123.822 20.5122C125.211 22.4496 125.906 24.0215 125.906 25.2278C125.906 25.5568 125.778 25.8493 125.522 26.1052C125.302 26.3245 125.028 26.4342 124.699 26.4342H112.307C111.576 26.4342 111.046 26.2331 110.717 25.831C109.584 24.4053 107.902 23.6925 105.672 23.6925C103.991 23.6925 102.583 24.0763 101.45 24.844C100.353 25.6117 99.805 26.5987 99.805 27.805V37.1267C99.805 38.5889 100.353 39.7404 101.45 40.5812C102.547 41.3854 103.954 41.7875 105.672 41.7875C107.939 41.7875 109.602 41.4037 110.662 40.636C111.759 39.8318 112.325 38.8996 112.362 37.8395H108.962C108.56 37.8395 108.213 37.6933 107.92 37.4008C107.628 37.1084 107.482 36.7611 107.482 36.359V30.2725C107.482 29.8704 107.628 29.5231 107.92 29.2307C108.213 28.9382 108.56 28.792 108.962 28.792H124.864Z" fill="black"/>
<defs>
<clipPath id="clip0_226_20">
<rect width="66.1988" height="66.1818" fill="white"/>
</clipPath>
</defs>
</svg>
